<?xml version="1.0" encoding="UTF-8"?>
<!--Generator: Apple Native CoreSVG 341-->
<!DOCTYPE svg
PUBLIC "-//W3C//DTD SVG 1.1//EN"
       "http://www.w3.org/Graphics/SVG/1.1/DTD/svg11.dtd">
<svg version="1.1" xmlns="http://www.w3.org/2000/svg" xmlns:xlink="http://www.w3.org/1999/xlink" viewBox="0 0 215.472 215.752">
 <g>
  <path d="M170.299 7.56367L7.17369 170.814C-2.32631 180.189-2.45131 198.064 7.54869 208.189C17.6737 218.189 35.7987 217.814 45.0487 208.564L208.174 45.4387C218.049 35.5637 217.924 18.3137 207.674 8.06367C197.424-2.18633 180.299-2.31133 170.299 7.56367ZM208.174 170.564L45.0487 7.43867C35.6737-1.81133 17.7987-2.31133 7.54869 7.93867C-2.57631 18.1887-2.20131 35.9387 7.17369 45.3137L170.299 208.439C180.174 218.314 197.424 218.189 207.674 208.064C217.924 197.814 218.049 180.564 208.174 170.564Z" fill="#ff4245"/>
 </g>
</svg>
